<?xml version="1.0" standalone="no"?>
<!DOCTYPE svg PUBLIC "-//W3C//DTD SVG 20010904//EN"
 "http://www.w3.org/TR/2001/REC-SVG-20010904/DTD/svg10.dtd">
<svg version="1.0" xmlns="http://www.w3.org/2000/svg"
 width="512.000000pt" height="512.000000pt" viewBox="0 0 512.000000 512.000000"
 preserveAspectRatio="xMidYMid meet">

<g transform="translate(0.000000,512.000000) scale(0.100000,-0.100000)"
fill="#000000" stroke="none">
<path d="M2059 4766 c-59 -21 -104 -53 -133 -94 -34 -50 -46 -93 -46 -169 l0
-62 -547 -3 c-543 -3 -548 -3 -589 -25 -54 -29 -117 -101 -132 -151 -7 -22
-12 -102 -12 -186 l0 -146 1960 0 1960 0 0 146 c0 84 -5 164 -12 186 -15 50
-78 122 -132 151 -41 22 -46 22 -588 25 l-548 3 0 67 c-1 115 -41 187 -132
238 l-53 29 -480 2 c-376 2 -488 0 -516 -11z"/>
<path d="M850 2123 c0 -1177 3 -1469 14 -1514 25 -110 90 -189 196 -238 l55
-26 1445 0 1445 0 55 26 c106 49 171 128 196 238 11 45 14 337 14 1514 l0
1457 -1710 0 -1710 0 0 -1457z m923 933 c41 -17 81 -62 96 -105 15 -47 16
-1919 0 -1976 -24 -84 -119 -139 -203 -115 -49 14 -77 36 -105 81 -21 34 -21
40 -21 1022 0 1065 -2 1013 52 1064 46 43 120 55 181 29z m872 -9 c26 -14 48
-37 63 -67 l22 -44 0 -973 c0 -1064 3 -1014 -59 -1066 -67 -56 -155 -56 -222
0 -62 52 -59 2 -59 1066 l0 973 23 44 c28 56 83 90 147 90 28 0 60 -9 85 -23z
m863 -4 c15 -11 37 -35 50 -53 l22 -33 0 -991 c0 -985 0 -991 -21 -1025 -28
-45 -56 -67 -105 -81 -84 -24 -179 31 -203 115 -16 57 -15 1929 0 1976 14 42
54 87 94 105 41 20 129 13 163 -13z"/>
</g>
</svg>
